<svg width="50" height="51" viewBox="0 0 50 51" fill="none" xmlns="http://www.w3.org/2000/svg">
<g id="orders 1">
<g id="Group">
<g id="Group_2">
<path id="Vector" d="M39.4 31.55L37.6 30.7C37.35 30.55 37 30.55 36.75 30.7L26 35.8C25.4 36.1 24.65 36.1 24.05 35.8L13.25 30.7C13 30.55 12.65 30.55 12.4 30.7L10.6 31.55C9.8 31.95 9.8 33 10.6 33.4L24 39.75C24.6 40.05 25.35 40.05 25.95 39.75L39.35 33.4C40.2 33 40.2 31.9 39.4 31.55Z" fill="#BBBBBB"/>
</g>
<g id="Group_3">
<path id="Vector_2" d="M39.4 24.55L37.55 23.7C37.3 23.55 36.95 23.55 36.7 23.7L26 28.8C25.4 29.1 24.65 29.1 24.05 28.8L13.3 23.7C13.05 23.55 12.7 23.55 12.45 23.7L10.6 24.55C9.8 24.95 9.8 26 10.6 26.4L24 32.8C24.6 33.1 25.35 33.1 25.95 32.8L39.35 26.45C40.2 26.05 40.2 24.95 39.4 24.55Z" fill="#BBBBBB"/>
</g>
<g id="Group_4">
<path id="Vector_3" d="M10.6 19.4L24 25.75C24.6 26.05 25.35 26.05 25.95 25.75L39.35 19.4C40.15 19 40.15 17.95 39.35 17.55L25.95 11.2C25.35 10.9 24.6 10.9 24 11.2L10.6 17.6C9.8 17.95 9.8 19.05 10.6 19.4Z" fill="#BBBBBB"/>
</g>
</g>
</g>
</svg>
