<svg width="26" height="25" viewBox="0 0 26 25" fill="none" xmlns="http://www.w3.org/2000/svg">
<g id="mail 1">
<path id="Vector" fill-rule="evenodd" clip-rule="evenodd" d="M21.1911 4.1665C22.917 4.1665 24.3161 5.56562 24.3161 7.2915V17.7082C24.3161 19.4341 22.917 20.8332 21.1911 20.8332H4.52441C2.79853 20.8332 1.39941 19.4341 1.39941 17.7082V7.2915C1.39941 5.56562 2.79853 4.1665 4.52441 4.1665H21.1911ZM20.4129 6.24984H5.30273L12.2123 11.7047C12.5908 12.0036 13.1247 12.0036 13.5033 11.7047L20.4129 6.24984ZM3.48275 7.46734V17.7082C3.48275 18.2835 3.94912 18.7498 4.52441 18.7498H21.1911C21.7664 18.7498 22.2327 18.2835 22.2327 17.7082V7.46736L14.7941 13.3399C13.6588 14.2363 12.0567 14.2363 10.9214 13.3399L3.48275 7.46734Z" fill="#D9D9D9"/>
</g>
</svg>
