<svg width="16" height="16" viewBox="0 0 16 16" fill="none" xmlns="http://www.w3.org/2000/svg">
<g id="user-icon (2) 1">
<path id="Vector" fill-rule="evenodd" clip-rule="evenodd" d="M8.00008 8C9.84101 8 11.3334 6.35837 11.3334 4.33333C11.3334 2.30829 9.84101 0.666667 8.00008 0.666667C6.15913 0.666667 4.66675 2.30829 4.66675 4.33333C4.66675 6.35837 6.15913 8 8.00008 8ZM8.00008 6.53333C6.89548 6.53333 6.00008 5.54836 6.00008 4.33333C6.00008 3.11831 6.89548 2.13333 8.00008 2.13333C9.10468 2.13333 10.0001 3.11831 10.0001 4.33333C10.0001 5.54836 9.10468 6.53333 8.00008 6.53333Z" fill="#D9D9D9"/>
<path id="Vector_2" fill-rule="evenodd" clip-rule="evenodd" d="M12.7353 9.4058C12.1736 8.84227 11.3047 8.72073 10.6107 9.13247C10.4838 9.2078 10.3721 9.27673 10.2691 9.34033C9.9958 9.509 9.78367 9.63987 9.51027 9.7522C9.16667 9.8934 8.72233 10 8 10C7.28453 10 6.83287 9.8994 6.48406 9.76313C6.1757 9.64267 5.93215 9.49133 5.61123 9.29187C5.54864 9.253 5.48299 9.2122 5.41346 9.16953C4.71725 8.74213 3.82309 8.84147 3.24277 9.42793C2.98962 9.68373 2.69357 10.0146 2.4566 10.3751C2.23069 10.7187 2 11.1759 2 11.6667V13.3335C2 14.4383 2.89556 15.3333 4 15.3333H12C13.1045 15.3333 14 14.4383 14 13.3335V11.6667C14 11.1694 13.7631 10.7061 13.5331 10.3594C13.2913 9.99513 12.9901 9.66153 12.7353 9.4058ZM11.2911 10.2791C11.4506 10.1845 11.652 10.2077 11.7909 10.347C12.0143 10.5712 12.2483 10.8347 12.4221 11.0967C12.6075 11.3761 12.6667 11.568 12.6667 11.6667V13.3335C12.6667 13.7016 12.3683 14 12 14H4C3.63168 14 3.33333 13.7016 3.33333 13.3335V11.6667C3.33333 11.5699 3.39033 11.3819 3.57075 11.1075C3.74011 10.8499 3.96905 10.5896 4.19053 10.3658C4.32941 10.2254 4.54071 10.1983 4.71593 10.3059C4.77107 10.3397 4.82725 10.3747 4.88463 10.4106C5.20625 10.6114 5.56612 10.836 5.99891 11.0051C6.52869 11.2121 7.14947 11.3333 8 11.3333C8.8668 11.3333 9.48753 11.2031 10.0169 10.9855C10.4004 10.828 10.7386 10.6188 11.0372 10.4341C11.1253 10.3797 11.2099 10.3273 11.2911 10.2791Z" fill="#D9D9D9"/>
</g>
</svg>
