<svg width="16" height="16" viewBox="0 0 16 16" fill="none" xmlns="http://www.w3.org/2000/svg">
<path id="Vector" d="M1.23004 3.83697C1.21182 3.4976 0.921901 3.23726 0.582482 3.25547C0.243062 3.27369 -0.017317 3.56357 0.000900535 3.90293L1.23004 3.83697ZM2.02262 0.691567C1.78854 0.937982 1.79856 1.32747 2.04501 1.56153C2.29146 1.79558 2.68101 1.78556 2.91511 1.53915L2.02262 0.691567ZM6.90229 14.4101C7.19007 14.591 7.57001 14.5043 7.75088 14.2166C7.93174 13.9289 7.845 13.549 7.55721 13.3681L6.90229 14.4101ZM10.5531 14.6121C10.2204 14.5424 9.89422 14.7556 9.82455 15.0883C9.75488 15.4209 9.96808 15.747 10.3008 15.8167L10.5531 14.6121ZM10.9893 10.9078L11.363 10.5144L10.4705 9.66686L10.0968 10.0603L10.9893 10.9078ZM12.5929 10.3488L14.1606 11.251L14.7747 10.1844L13.2069 9.28214L12.5929 10.3488ZM14.4632 13.1217L13.2975 14.3488L14.19 15.1963L15.3557 13.9693L14.4632 13.1217ZM5.01087 11.2483C1.83008 7.90004 1.29654 5.07575 1.23004 3.83697L0.000900535 3.90293C0.0823459 5.42019 0.72667 8.52566 4.11838 12.0959L5.01087 11.2483ZM6.13948 5.80272L6.37488 5.55497L5.48236 4.70739L5.247 4.95514L6.13948 5.80272ZM6.55976 2.47036L5.52497 1.00704L4.5199 1.71755L5.55468 3.18086L6.55976 2.47036ZM5.69324 5.37892C5.247 4.95514 5.24643 4.95574 5.24586 4.95634C5.24567 4.95655 5.24509 4.95716 5.2447 4.95757C5.24392 4.9584 5.24312 4.95925 5.24232 4.96012C5.2407 4.96186 5.23903 4.96367 5.23731 4.96557C5.23387 4.96935 5.23022 4.97344 5.22638 4.97786C5.2187 4.98669 5.21027 4.99678 5.20125 5.00817C5.18321 5.03097 5.1628 5.05897 5.14139 5.09242C5.09847 5.1595 5.05191 5.24784 5.01248 5.35863C4.9323 5.58391 4.88861 5.88223 4.94321 6.25479C5.05047 6.98676 5.53016 7.97109 6.78354 9.29043L7.67604 8.44287C6.50446 7.20961 6.21589 6.45009 6.16111 6.07637C6.1347 5.89607 6.16154 5.80106 6.17216 5.77123C6.17812 5.75446 6.18203 5.7498 6.17821 5.75577C6.17636 5.75866 6.17267 5.76409 6.16646 5.77193C6.16335 5.77586 6.15962 5.78039 6.15516 5.78552C6.15292 5.78808 6.15051 5.7908 6.1479 5.79367C6.1466 5.79511 6.14524 5.79657 6.14384 5.79808C6.14314 5.79884 6.14243 5.7996 6.1417 5.80037C6.14134 5.80076 6.14078 5.80135 6.1406 5.80154C6.14004 5.80213 6.13948 5.80272 5.69324 5.37892ZM6.78354 9.29043C8.03316 10.6059 8.97703 11.1231 9.69711 11.24C10.0665 11.2999 10.3657 11.252 10.5921 11.1628C10.7028 11.1191 10.7905 11.0678 10.8562 11.0212C10.889 10.9979 10.9163 10.9759 10.9384 10.9566C10.9494 10.9469 10.9591 10.9379 10.9676 10.9297C10.9718 10.9256 10.9757 10.9217 10.9793 10.9181C10.9811 10.9163 10.9829 10.9145 10.9846 10.9128C10.9854 10.9119 10.9862 10.9111 10.9869 10.9103C10.9874 10.9099 10.9879 10.9092 10.9882 10.9091C10.9887 10.9084 10.9893 10.9078 10.5431 10.4841C10.0968 10.0603 10.0974 10.0597 10.0979 10.0591C10.0981 10.0589 10.0986 10.0583 10.099 10.0579C10.0998 10.0572 10.1005 10.0564 10.1012 10.0557C10.1027 10.0542 10.1041 10.0527 10.1054 10.0513C10.1082 10.0486 10.1108 10.046 10.1132 10.0436C10.1182 10.0389 10.1227 10.0348 10.1266 10.0313C10.1345 10.0244 10.1403 10.02 10.1441 10.0174C10.1517 10.0119 10.151 10.0138 10.1405 10.0179C10.1246 10.0241 10.0501 10.0504 9.89439 10.0252C9.56409 9.97151 8.85123 9.67999 7.67604 8.44287L6.78354 9.29043ZM5.52497 1.00704C4.69321 -0.169182 3.02884 -0.367624 2.02262 0.691567L2.91511 1.53915C3.34415 1.08752 4.09946 1.12299 4.5199 1.71755L5.52497 1.00704ZM13.2975 14.3488C13.0685 14.5898 12.829 14.719 12.5961 14.7419L12.717 15.9668C13.33 15.9062 13.8262 15.5793 14.19 15.1963L13.2975 14.3488ZM6.37488 5.55497C7.16882 4.71916 7.22503 3.41117 6.55976 2.47036L5.55468 3.18086C5.90109 3.67075 5.84797 4.32252 5.48236 4.70739L6.37488 5.55497ZM14.1606 11.251C14.8343 11.6387 14.9661 12.5924 14.4632 13.1217L15.3557 13.9693C16.4266 12.842 16.1147 10.9556 14.7747 10.1844L14.1606 11.251ZM11.363 10.5144C11.6793 10.1815 12.1721 10.1066 12.5929 10.3488L13.2069 9.28214C12.3055 8.76335 11.1876 8.9121 10.4705 9.66686L11.363 10.5144ZM7.55721 13.3681C6.74998 12.8609 5.8908 12.1746 5.01087 11.2483L4.11838 12.0959C5.06539 13.0928 6.00361 13.8455 6.90229 14.4101L7.55721 13.3681ZM12.5961 14.7419C12.1476 14.7863 11.4379 14.7973 10.5531 14.6121L10.3008 15.8167C11.3254 16.0312 12.1625 16.0215 12.717 15.9668L12.5961 14.7419Z" fill="#D9D9D9"/>
</svg>
