<svg width="13" height="24" viewBox="0 0 13 24" fill="none" xmlns="http://www.w3.org/2000/svg">
<path id="Vector" d="M5.55356 2.47865C5.83742 2.16258 5.81128 1.67621 5.49518 1.3923C5.17907 1.1084 4.6927 1.13447 4.40885 1.45053L5.55356 2.47865ZM9.03429 0.399029C8.60958 0.409926 8.27417 0.763046 8.28513 1.18776C8.29609 1.61247 8.64926 1.94793 9.07398 1.93704L9.03429 0.399029ZM1.22171 16.8377C1.31625 17.2519 1.72866 17.5112 2.14285 17.4167C2.55704 17.3222 2.81614 16.9098 2.72161 16.4956L1.22171 16.8377ZM4.27012 20.2431C4.03765 19.8874 3.56085 19.7876 3.20527 20.02C2.84969 20.2525 2.74986 20.7292 2.98241 21.0849L4.27012 20.2431ZM7.92981 17.3545L8.60786 17.3371L8.56814 15.7991L7.89009 15.8165L7.92981 17.3545ZM9.84132 18.2777L10.4295 20.461L11.9151 20.061L11.3268 17.8777L9.84132 18.2777ZM9.04355 22.3818L6.92861 22.4361L6.96833 23.9741L9.0832 23.9199L9.04355 22.3818ZM2.34459 12.3712C2.49265 6.6003 4.51741 3.63236 5.55356 2.47865L4.40885 1.45053C3.13976 2.8636 0.964394 6.17798 0.806595 12.3315L2.34459 12.3712ZM8.15545 8.55551L8.5825 8.5446L8.54278 7.00655L8.11576 7.0175L8.15545 8.55551ZM11.4723 5.98158L11.8511 3.77354L10.3347 3.51318L9.95596 5.7212L11.4723 5.98158ZM8.13561 7.78651C8.11576 7.0175 8.11473 7.01753 8.11369 7.01755C8.11333 7.01757 8.11229 7.0176 8.11158 7.01761C8.11015 7.01766 8.1087 7.01771 8.10722 7.01777C8.10425 7.01787 8.10117 7.018 8.09798 7.01816C8.09159 7.01845 8.08475 7.01885 8.07745 7.01935C8.06286 7.02037 8.04649 7.02184 8.02844 7.02394C7.99235 7.02814 7.94956 7.03486 7.90107 7.0455C7.80384 7.06685 7.6846 7.10378 7.55184 7.16685C7.28185 7.2951 6.97954 7.52017 6.6985 7.89772C6.14633 8.63951 5.70029 9.93354 5.642 12.2075L7.18 12.2472C7.23452 10.1216 7.65078 9.19525 7.93269 8.8165C8.06871 8.63379 8.17641 8.57355 8.21216 8.55656C8.23226 8.54701 8.23983 8.54635 8.23118 8.54825C8.22699 8.54917 8.21892 8.5507 8.2065 8.55215C8.20029 8.55287 8.19299 8.55357 8.1845 8.55417C8.18027 8.55446 8.17573 8.55472 8.17089 8.55496C8.16846 8.55507 8.16597 8.55517 8.1634 8.55527C8.16211 8.55532 8.16081 8.55536 8.15948 8.5554C8.15882 8.55542 8.1578 8.55545 8.15748 8.55546C8.15646 8.55549 8.15545 8.55551 8.13561 7.78651ZM5.642 12.2075C5.58379 14.4748 5.96095 15.7661 6.49408 16.5059C6.76761 16.8855 7.07434 17.1075 7.35343 17.2288C7.48986 17.2881 7.61265 17.3202 7.71194 17.3371C7.76147 17.3455 7.80514 17.3501 7.84169 17.3526C7.85997 17.3537 7.87657 17.3544 7.8913 17.3546C7.89862 17.3548 7.90551 17.3548 7.91189 17.3548C7.91509 17.3548 7.91828 17.3548 7.92125 17.3547C7.9227 17.3547 7.92415 17.3547 7.92553 17.3546C7.92625 17.3546 7.92734 17.3545 7.92771 17.3546C7.92879 17.3545 7.92981 17.3545 7.90995 16.5855C7.89009 15.8165 7.89111 15.8165 7.89205 15.8165C7.89248 15.8165 7.89343 15.8164 7.89415 15.8164C7.89546 15.8164 7.89676 15.8164 7.898 15.8163C7.90061 15.8163 7.90315 15.8163 7.90561 15.8163C7.9104 15.8163 7.91504 15.8163 7.91932 15.8163C7.92795 15.8165 7.93549 15.8168 7.94202 15.8173C7.95507 15.8181 7.96414 15.8194 7.9698 15.8204C7.9814 15.8223 7.97908 15.8233 7.96617 15.8176C7.94666 15.8091 7.85752 15.7666 7.74219 15.6066C7.49768 15.2672 7.12526 14.3794 7.18 12.2472L5.642 12.2075ZM11.8511 3.77354C12.1556 1.99871 10.8599 0.352202 9.03429 0.399029L9.07398 1.93704C9.85239 1.91707 10.4886 2.61604 10.3347 3.51318L11.8511 3.77354ZM6.92861 22.4361C6.51311 22.4467 6.18724 22.3492 5.96108 22.1636L4.98541 23.3531C5.58074 23.8414 6.30819 23.991 6.96833 23.9741L6.92861 22.4361ZM8.5825 8.5446C10.023 8.50759 11.2288 7.40117 11.4723 5.98158L9.95596 5.7212C9.82915 6.46039 9.2061 6.98953 8.54278 7.00655L8.5825 8.5446ZM10.4295 20.461C10.6823 21.399 9.95586 22.3584 9.04355 22.3818L9.0832 23.9199C11.0261 23.8701 12.4178 21.927 11.9151 20.061L10.4295 20.461ZM8.60786 17.3371C9.18169 17.3224 9.68345 17.6919 9.84132 18.2777L11.3268 17.8777C10.9886 16.6224 9.86905 15.7658 8.56814 15.7991L8.60786 17.3371ZM2.72161 16.4956C2.45644 15.3337 2.30365 13.9677 2.34459 12.3712L0.806595 12.3315C0.762509 14.0497 0.926483 15.5443 1.22171 16.8377L2.72161 16.4956ZM5.96108 22.1636C5.52554 21.8064 4.88841 21.1889 4.27012 20.2431L2.98241 21.0849C3.6984 22.18 4.44686 22.9113 4.98541 23.3531L5.96108 22.1636Z" fill="#D9D9D9"/>
</svg>
