<svg width="46" height="45" viewBox="0 0 46 45" fill="none" xmlns="http://www.w3.org/2000/svg">
<g id="reminder 1">
<path id="Vector" d="M35.4205 30.6354V20.1286C35.4191 17.3316 34.4751 14.6166 32.7409 12.4221C31.0067 10.2275 28.5836 8.68146 25.8626 8.03344V7.10991C25.8583 6.34163 25.55 5.60629 25.0052 5.06457C24.4604 4.52284 23.7233 4.21877 22.955 4.21877C22.1867 4.21877 21.4497 4.52284 20.9049 5.06457C20.36 5.60629 20.0518 6.34163 20.0474 7.10991V8.04375C17.3358 8.69914 14.9231 10.247 13.1971 12.4386C11.471 14.6302 10.5317 17.3384 10.53 20.1281V30.6354L6.58765 34.5779V36.3987H39.3626V34.5778L35.4205 30.6354Z" stroke="#BBBBBB" stroke-width="3" stroke-linecap="round" stroke-linejoin="round"/>
<path id="Vector_2" d="M18.5941 36.3987C18.5881 37.5551 19.0417 38.6664 19.8552 39.4883C20.6686 40.3102 21.7752 40.7752 22.9315 40.7812C24.0879 40.7872 25.1992 40.3335 26.0211 39.5201C26.843 38.7067 27.3081 37.6001 27.314 36.4437V36.3987" stroke="#BBBBBB" stroke-width="3" stroke-linecap="round" stroke-linejoin="round"/>
</g>
</svg>
