<svg width="45" height="45" viewBox="0 0 45 45" fill="none" xmlns="http://www.w3.org/2000/svg">
<g id="reminder 1">
<path id="Vector" d="M34.9451 30.6354V20.1286C34.9437 17.3316 33.9997 14.6166 32.2656 12.4221C30.5314 10.2275 28.1082 8.68144 25.3873 8.03343V7.1099C25.3829 6.34161 25.0747 5.60628 24.5299 5.06455C23.9851 4.52283 23.248 4.21875 22.4797 4.21875C21.7114 4.21875 20.9743 4.52283 20.4295 5.06455C19.8847 5.60628 19.5764 6.34161 19.5721 7.1099V8.04374C16.8604 8.69912 14.4478 10.2469 12.7217 12.4386C10.9956 14.6302 10.0563 17.3384 10.0547 20.1281V30.6354L6.1123 34.5779V36.3987H38.8873V34.5778L34.9451 30.6354Z" stroke="#BBBBBB" stroke-width="3" stroke-linecap="round" stroke-linejoin="round"/>
<path id="Vector_2" d="M18.1192 36.3987C18.1132 37.555 18.5669 38.6664 19.3803 39.4882C20.1937 40.3101 21.3003 40.7752 22.4567 40.7812C23.613 40.7871 24.7244 40.3335 25.5462 39.5201C26.3681 38.7066 26.8332 37.6 26.8392 36.4437V36.3987" stroke="#BBBBBB" stroke-width="3" stroke-linecap="round" stroke-linejoin="round"/>
</g>
</svg>
