<svg width="35" height="35" viewBox="0 0 35 35" fill="none" xmlns="http://www.w3.org/2000/svg">
<rect width="35" height="35" rx="17.5" fill="#2AA1DA"/>
<path fill-rule="evenodd" clip-rule="evenodd" d="M10.8067 19.3478C10.8497 19.3624 10.8931 19.3726 10.9365 19.3789C10.9839 19.4902 11.045 19.634 11.1163 19.8022C11.2904 20.2128 11.525 20.7682 11.7671 21.3474C12.2609 22.5289 12.759 23.7467 12.869 24.0953C13.0051 24.5262 13.1491 24.8192 13.3062 25.0192C13.3875 25.1227 13.4814 25.2129 13.5914 25.2813C13.6467 25.3158 13.7052 25.344 13.7662 25.365C13.7689 25.366 13.7716 25.3669 13.7743 25.3678C14.0889 25.4865 14.3758 25.4371 14.5554 25.3766C14.6514 25.3442 14.7292 25.3051 14.7843 25.2735C14.8124 25.2573 14.8361 25.2422 14.8551 25.2294L14.8595 25.2265L17.638 23.4937L20.8476 25.9543C20.8949 25.9906 20.9466 26.0211 21.0012 26.0449C21.3868 26.2132 21.7602 26.2719 22.1114 26.2239C22.4621 26.176 22.7404 26.0287 22.9476 25.8629C23.1506 25.7006 23.2882 25.5187 23.3738 25.3836C23.4176 25.3146 23.4504 25.2535 23.4736 25.2068C23.4852 25.1833 23.4946 25.1631 23.5018 25.1469L23.5111 25.1254L23.5146 25.117L23.5161 25.1134L23.5167 25.1118L23.5174 25.1102C23.5342 25.068 23.5472 25.0244 23.556 24.9798L26.4859 10.2078C26.4953 10.1605 26.5 10.1125 26.5 10.0643C26.5 9.63174 26.337 9.2204 25.9538 8.97079C25.6262 8.75745 25.2613 8.74827 25.0307 8.76577C24.7819 8.78465 24.5521 8.84607 24.398 8.89514C24.3177 8.92068 24.2504 8.94532 24.2019 8.96411C24.1775 8.97356 24.1576 8.98167 24.1426 8.98786L24.1315 8.99256L7.69969 15.4385L7.69756 15.4393C7.68709 15.4431 7.67364 15.4481 7.65767 15.4543C7.62585 15.4667 7.58322 15.4841 7.53342 15.5067C7.43631 15.5508 7.30006 15.6195 7.16025 15.7153C6.93689 15.8682 6.42322 16.2872 6.50971 16.9786C6.57872 17.5302 6.95662 17.869 7.18686 18.0319C7.31328 18.1214 7.43339 18.1853 7.52086 18.227C7.56143 18.2462 7.64568 18.2805 7.68224 18.2954L7.69147 18.2991L10.8067 19.3478ZM24.7066 10.3505L24.7043 10.3515C24.696 10.355 24.6879 10.3584 24.6795 10.3617L8.22778 16.8155C8.21918 16.8188 8.21053 16.8221 8.20182 16.8251L8.19267 16.8286C8.18214 16.8327 8.16442 16.8399 8.14219 16.8499C8.12957 16.8556 8.11641 16.8619 8.10299 16.8686C8.12142 16.879 8.13907 16.8879 8.15475 16.8954C8.1698 16.9026 8.18129 16.9075 8.18757 16.9101L11.2772 17.9502C11.3337 17.9693 11.3865 17.9945 11.4348 18.0249L21.6366 12.0529L21.6462 12.0472C21.6535 12.0428 21.6634 12.0372 21.6751 12.0306C21.6983 12.0175 21.7301 12 21.7681 11.9807C21.8389 11.9446 21.9522 11.8911 22.0798 11.8517C22.1686 11.8242 22.4306 11.7469 22.7139 11.8377C22.8887 11.8938 23.0697 12.0143 23.1874 12.2185C23.2458 12.32 23.277 12.4219 23.2921 12.5152C23.3322 12.6621 23.3259 12.8073 23.2945 12.9325C23.2269 13.2024 23.0373 13.4129 22.8648 13.5739C22.7169 13.712 20.8043 15.5562 18.9176 17.3768C17.9766 18.2846 17.0454 19.1836 16.3492 19.8554L15.8921 20.2969L21.665 24.7227C21.7974 24.7701 21.8756 24.7678 21.9118 24.7627C21.955 24.7568 21.9903 24.7402 22.0264 24.7114C22.0667 24.6792 22.102 24.6355 22.1283 24.5939L22.1294 24.5923L24.9711 10.2651C24.929 10.2752 24.8863 10.2873 24.8452 10.3004C24.7987 10.3152 24.7602 10.3293 24.7349 10.3392C24.7222 10.344 24.7132 10.3478 24.7082 10.3498L24.7066 10.3505ZM16.388 22.5354L15.2362 21.6523L14.9572 23.4275L16.388 22.5354ZM14.1797 19.9002L15.325 18.7944C16.0212 18.1225 16.9526 17.2235 17.8937 16.3155L18.8497 15.3931L12.4396 19.1455L12.474 19.2266C12.6487 19.6387 12.8844 20.1964 13.1278 20.7788C13.3098 21.2142 13.5001 21.6728 13.6734 22.0973L13.9517 20.3272C13.9785 20.1566 14.0619 20.0089 14.1797 19.9002Z" fill="white"/>
</svg>
