<svg width="30" height="31" viewBox="0 0 30 31" fill="none" xmlns="http://www.w3.org/2000/svg">
<g id="user-icon (2) 1">
<path id="Vector" fill-rule="evenodd" clip-rule="evenodd" d="M15 15.5C18.4517 15.5 21.25 12.4219 21.25 8.625C21.25 4.82804 18.4517 1.75 15 1.75C11.5482 1.75 8.75 4.82804 8.75 8.625C8.75 12.4219 11.5482 15.5 15 15.5ZM15 12.75C12.9289 12.75 11.25 10.9032 11.25 8.625C11.25 6.34682 12.9289 4.5 15 4.5C17.0711 4.5 18.75 6.34682 18.75 8.625C18.75 10.9032 17.0711 12.75 15 12.75Z" fill="black"/>
<path id="Vector_2" fill-rule="evenodd" clip-rule="evenodd" d="M23.8786 18.1359C22.8255 17.0793 21.1962 16.8514 19.8951 17.6234C19.6571 17.7647 19.4476 17.8939 19.2545 18.0132C18.7421 18.3294 18.3444 18.5748 17.8317 18.7854C17.1875 19.0502 16.3544 19.2501 15 19.2501C13.6585 19.2501 12.8116 19.0614 12.1576 18.8059C11.5794 18.5801 11.1228 18.2963 10.5211 17.9223C10.4037 17.8494 10.2806 17.7729 10.1502 17.6929C8.84484 16.8916 7.1683 17.0778 6.08019 18.1774C5.60554 18.6571 5.05045 19.2774 4.60613 19.9533C4.18254 20.5977 3.75 21.4548 3.75 22.3751V25.5004C3.75 27.5718 5.42918 29.2501 7.5 29.2501H22.5C24.5709 29.2501 26.25 27.5718 26.25 25.5004V22.3751C26.25 21.4427 25.8059 20.5741 25.3745 19.9239C24.9213 19.2409 24.3565 18.6154 23.8786 18.1359ZM21.1709 19.7734C21.4699 19.5961 21.8475 19.6396 22.1079 19.9007C22.5268 20.3211 22.9655 20.8152 23.2914 21.3063C23.6391 21.8303 23.75 22.1901 23.75 22.3751V25.5004C23.75 26.1906 23.1906 26.7501 22.5 26.7501H7.5C6.8094 26.7501 6.25 26.1906 6.25 25.5004V22.3751C6.25 22.1937 6.35686 21.8412 6.69516 21.3267C7.01271 20.8436 7.44197 20.3556 7.85724 19.9359C8.11765 19.6727 8.51383 19.6218 8.84236 19.8236C8.94576 19.8869 9.05109 19.9527 9.15868 20.0199C9.76172 20.3964 10.4365 20.8176 11.2479 21.1346C12.2413 21.5227 13.4052 21.7501 15 21.7501C16.6252 21.7501 17.7891 21.5058 18.7817 21.0979C19.5008 20.8026 20.1349 20.4103 20.6947 20.0641C20.8599 19.9619 21.0185 19.8638 21.1709 19.7734Z" fill="black"/>
</g>
</svg>
